<svg xmlns="http://www.w3.org/2000/svg" xmlns:xlink="http://www.w3.org/1999/xlink" xmlns:serif="http://www.serif.com/" viewBox="0 0 48 60" version="1.1" fill="#FFFFFF" xml:space="preserve" style="" x="0px" y="0px" fill-rule="evenodd" clip-rule="evenodd" stroke-linejoin="round" stroke-miterlimit="2"><g transform="matrix(1,0,0,1,-120,-120)"><g><g transform="matrix(0.707107,-0.707107,0.707107,0.707107,-172.33,350.94)"><path d="M371,85L371,88C371,88.552 371.448,89 372,89L378,89C378.552,89 379,88.552 379,88C379,87.448 378.552,87 378,87L373,87C373,87 373,85 373,85C373,84.448 372.552,84 372,84C371.448,84 371,84.448 371,85Z"/></g><path d="M149,155.483L149,164.5C149,165.163 149.263,165.799 149.732,166.268C150.201,166.737 150.837,167 151.5,167C152.93,167 155.07,167 156.5,167C157.163,167 157.799,166.737 158.268,166.268C158.737,165.799 159,165.163 159,164.5L159,155.483C161.411,153.868 163,151.118 163,148C163,143.033 158.967,139 154,139C149.033,139 145,143.033 145,148C145,151.118 146.589,153.868 149,155.483ZM157,156.487C156.061,156.819 155.052,157 154,157C152.948,157 151.939,156.819 151,156.487L151,164.5C151,164.633 151.053,164.76 151.146,164.854C151.24,164.947 151.367,165 151.5,165L156.5,165C156.633,165 156.76,164.947 156.854,164.854C156.947,164.76 157,164.633 157,164.5L157,156.487ZM154,141C157.863,141 161,144.137 161,148C161,151.863 157.863,155 154,155C150.137,155 147,151.863 147,148C147,144.137 150.137,141 154,141Z"/><path d="M128,129L134,129C134.552,129 135,128.552 135,128C135,127.448 134.552,127 134,127L128,127C127.448,127 127,127.448 127,128C127,128.552 127.448,129 128,129Z"/><g transform="matrix(1,0,0,1,0,12)"><path d="M128,129L144,129C144.552,129 145,128.552 145,128C145,127.448 144.552,127 144,127L128,127C127.448,127 127,127.448 127,128C127,128.552 127.448,129 128,129Z"/></g><g transform="matrix(1,0,0,1,0,20)"><path d="M128,129L142,129C142.552,129 143,128.552 143,128C143,127.448 142.552,127 142,127L128,127C127.448,127 127,127.448 127,128C127,128.552 127.448,129 128,129Z"/></g><g transform="matrix(1,0,0,1,0,4)"><path d="M128,129L138,129C138.552,129 139,128.552 139,128C139,127.448 138.552,127 138,127L128,127C127.448,127 127,127.448 127,128C127,128.552 127.448,129 128,129Z"/></g><g transform="matrix(1,0,0,1,0,16)"><path d="M128,129L142,129C142.552,129 143,128.552 143,128C143,127.448 142.552,127 142,127L128,127C127.448,127 127,127.448 127,128C127,128.552 127.448,129 128,129Z"/></g><g transform="matrix(1,0,0,1,0,24)"><path d="M128,129L136,129C136.552,129 137,128.552 137,128C137,127.448 136.552,127 136,127L128,127C127.448,127 127,127.448 127,128C127,128.552 127.448,129 128,129Z"/></g><g transform="matrix(1,0,0,1,-2,0)"><path d="M136,161L136.757,161C137.959,161 138.99,160.145 139.213,158.964L139.509,157.398C139.553,157.161 139.76,156.99 140,156.99C140.24,156.99 140.447,157.161 140.491,157.398L140.787,158.964C141.01,160.145 142.042,161 143.243,161C145.001,161 148,161 148,161C148.552,161 149,160.552 149,160C149,159.448 148.552,159 148,159L143.243,159C143.003,159 142.797,158.829 142.752,158.593C142.752,158.593 142.457,157.027 142.457,157.027C142.234,155.846 141.202,154.99 140,154.99C138.798,154.99 137.766,155.846 137.543,157.027C137.543,157.027 137.248,158.593 137.248,158.593C137.203,158.829 136.997,159 136.757,159C136.757,159 136,159 136,159C135.448,159 135,159.448 135,160C135,160.552 135.448,161 136,161Z"/></g><path d="M128,121L123.5,121C122.119,121 121,122.119 121,123.5C121,130.248 121,157.752 121,164.5C121,165.881 122.119,167 123.5,167C123.5,167 146,167 146,167C146.552,167 147,166.552 147,166C147,165.448 146.552,165 146,165L123.5,165C123.224,165 123,164.776 123,164.5C123,164.5 123,123.5 123,123.5C123,123.224 123.224,123 123.5,123L128,123C128.552,123 129,122.552 129,122C129,121.448 128.552,121 128,121ZM152.5,121L132,121C131.448,121 131,121.448 131,122C131,122.552 131.448,123 132,123L152.5,123C152.776,123 153,123.224 153,123.5C153,123.5 153,136 153,136C153,136.552 153.448,137 154,137C154.552,137 155,136.552 155,136L155,123.5C155,122.119 153.881,121 152.5,121Z"/></g></g></svg>